<mxfile host="Electron" modified="2024-06-04T17:55:53.911Z" agent="Mozilla/5.0 (Windows NT 10.0; Win64; x64) AppleWebKit/537.36 (KHTML, like Gecko) draw.io/24.4.13 Chrome/124.0.6367.207 Electron/30.0.6 Safari/537.36" etag="KqVxipA0qRYQ-tlb-pQA" version="24.4.13" type="device">
  <diagram name="Page-1" id="U-xL6BUk5t8aM7rJV_CY">
    <mxGraphModel dx="804" dy="828" grid="0" gridSize="10" guides="1" tooltips="1" connect="1" arrows="1" fold="1" page="1" pageScale="1" pageWidth="850" pageHeight="1100" math="0" shadow="0">
      <root>
        <mxCell id="0" />
        <mxCell id="1" parent="0" />
        <mxCell id="ojNsEPtxt1X2KsDSGKr0-8" style="rounded=0;orthogonalLoop=1;jettySize=auto;html=1;exitX=0;exitY=1;exitDx=0;exitDy=0;entryX=0.5;entryY=0;entryDx=0;entryDy=0;" edge="1" parent="1" source="ojNsEPtxt1X2KsDSGKr0-2" target="ojNsEPtxt1X2KsDSGKr0-3">
          <mxGeometry relative="1" as="geometry" />
        </mxCell>
        <mxCell id="ojNsEPtxt1X2KsDSGKr0-9" style="rounded=0;orthogonalLoop=1;jettySize=auto;html=1;exitX=1;exitY=1;exitDx=0;exitDy=0;" edge="1" parent="1" source="ojNsEPtxt1X2KsDSGKr0-2" target="ojNsEPtxt1X2KsDSGKr0-4">
          <mxGeometry relative="1" as="geometry" />
        </mxCell>
        <mxCell id="ojNsEPtxt1X2KsDSGKr0-2" value="1" style="ellipse;whiteSpace=wrap;html=1;aspect=fixed;" vertex="1" parent="1">
          <mxGeometry x="75" y="40" width="80" height="80" as="geometry" />
        </mxCell>
        <mxCell id="ojNsEPtxt1X2KsDSGKr0-3" value="2" style="ellipse;whiteSpace=wrap;html=1;aspect=fixed;" vertex="1" parent="1">
          <mxGeometry x="15" y="160" width="80" height="80" as="geometry" />
        </mxCell>
        <mxCell id="ojNsEPtxt1X2KsDSGKr0-4" value="3" style="ellipse;whiteSpace=wrap;html=1;aspect=fixed;" vertex="1" parent="1">
          <mxGeometry x="145" y="160" width="80" height="80" as="geometry" />
        </mxCell>
        <mxCell id="ojNsEPtxt1X2KsDSGKr0-13" style="edgeStyle=orthogonalEdgeStyle;rounded=0;orthogonalLoop=1;jettySize=auto;html=1;exitX=0.5;exitY=1;exitDx=0;exitDy=0;entryX=0.5;entryY=0;entryDx=0;entryDy=0;" edge="1" parent="1" source="ojNsEPtxt1X2KsDSGKr0-5" target="ojNsEPtxt1X2KsDSGKr0-6">
          <mxGeometry relative="1" as="geometry" />
        </mxCell>
        <mxCell id="ojNsEPtxt1X2KsDSGKr0-5" value="1" style="ellipse;whiteSpace=wrap;html=1;aspect=fixed;" vertex="1" parent="1">
          <mxGeometry x="80" y="480" width="80" height="80" as="geometry" />
        </mxCell>
        <mxCell id="ojNsEPtxt1X2KsDSGKr0-14" style="edgeStyle=orthogonalEdgeStyle;rounded=0;orthogonalLoop=1;jettySize=auto;html=1;exitX=0.5;exitY=1;exitDx=0;exitDy=0;" edge="1" parent="1" source="ojNsEPtxt1X2KsDSGKr0-6" target="ojNsEPtxt1X2KsDSGKr0-7">
          <mxGeometry relative="1" as="geometry" />
        </mxCell>
        <mxCell id="ojNsEPtxt1X2KsDSGKr0-6" value="2" style="ellipse;whiteSpace=wrap;html=1;aspect=fixed;" vertex="1" parent="1">
          <mxGeometry x="80" y="600" width="80" height="80" as="geometry" />
        </mxCell>
        <mxCell id="ojNsEPtxt1X2KsDSGKr0-7" value="3" style="ellipse;whiteSpace=wrap;html=1;aspect=fixed;" vertex="1" parent="1">
          <mxGeometry x="80" y="720" width="80" height="80" as="geometry" />
        </mxCell>
        <mxCell id="ojNsEPtxt1X2KsDSGKr0-11" value="&lt;h1 style=&quot;margin-top: 0px;&quot;&gt;Definition&lt;/h1&gt;&lt;p&gt;1: [2, 3]&lt;/p&gt;&lt;p&gt;2: []&lt;/p&gt;&lt;p&gt;3: []&lt;/p&gt;" style="text;html=1;whiteSpace=wrap;overflow=hidden;rounded=0;" vertex="1" parent="1">
          <mxGeometry x="273" y="40" width="180" height="120" as="geometry" />
        </mxCell>
        <mxCell id="ojNsEPtxt1X2KsDSGKr0-12" value="&lt;h1 style=&quot;margin-top: 0px;&quot;&gt;Definition&lt;/h1&gt;&lt;p&gt;1: [2]&lt;/p&gt;&lt;p&gt;2: [3]&lt;/p&gt;&lt;p&gt;3: []&lt;/p&gt;" style="text;html=1;whiteSpace=wrap;overflow=hidden;rounded=0;" vertex="1" parent="1">
          <mxGeometry x="230" y="480" width="180" height="120" as="geometry" />
        </mxCell>
        <mxCell id="ojNsEPtxt1X2KsDSGKr0-15" value="Iterations:&lt;div&gt;&lt;br&gt;&lt;/div&gt;&lt;div&gt;Start from 1&lt;/div&gt;&lt;div&gt;&lt;div&gt;Go into 2&lt;/div&gt;&lt;/div&gt;&lt;div&gt;Back to 1&lt;/div&gt;&lt;div&gt;Go into 3&lt;/div&gt;&lt;div&gt;Back into 1&lt;/div&gt;&lt;div&gt;Finished&lt;/div&gt;" style="text;html=1;align=left;verticalAlign=top;whiteSpace=wrap;rounded=0;" vertex="1" parent="1">
          <mxGeometry x="453" y="48" width="141" height="161" as="geometry" />
        </mxCell>
        <mxCell id="ojNsEPtxt1X2KsDSGKr0-16" value="Visited:&lt;div&gt;&lt;br&gt;&lt;/div&gt;&lt;div&gt;[1]&lt;/div&gt;&lt;div&gt;&lt;div&gt;[1, 2]&lt;/div&gt;&lt;/div&gt;&lt;div&gt;[1]&lt;/div&gt;&lt;div&gt;[1, 3]&lt;/div&gt;&lt;div&gt;[1]&lt;/div&gt;" style="text;html=1;align=left;verticalAlign=top;whiteSpace=wrap;rounded=0;labelBorderColor=none;labelBackgroundColor=none;textShadow=0;" vertex="1" parent="1">
          <mxGeometry x="594" y="48" width="59" height="161" as="geometry" />
        </mxCell>
        <mxCell id="ojNsEPtxt1X2KsDSGKr0-17" value="Level:&lt;div&gt;&lt;br&gt;&lt;/div&gt;&lt;div&gt;1&lt;/div&gt;&lt;div&gt;2&lt;/div&gt;&lt;div&gt;1&lt;/div&gt;&lt;div&gt;2&lt;/div&gt;" style="text;html=1;align=left;verticalAlign=top;whiteSpace=wrap;rounded=0;" vertex="1" parent="1">
          <mxGeometry x="653" y="48" width="59" height="161" as="geometry" />
        </mxCell>
        <mxCell id="ojNsEPtxt1X2KsDSGKr0-18" value="Iterations:&lt;div&gt;&lt;br&gt;&lt;/div&gt;&lt;div&gt;Start from 1&lt;/div&gt;&lt;div&gt;&lt;div&gt;Go into 2&lt;/div&gt;&lt;/div&gt;&lt;div&gt;Go into 3&lt;/div&gt;&lt;div&gt;Back into 2&lt;/div&gt;&lt;div&gt;Back into 1&lt;/div&gt;&lt;div&gt;Finished&lt;/div&gt;" style="text;html=1;align=left;verticalAlign=top;whiteSpace=wrap;rounded=0;" vertex="1" parent="1">
          <mxGeometry x="404" y="480" width="141" height="161" as="geometry" />
        </mxCell>
        <mxCell id="ojNsEPtxt1X2KsDSGKr0-19" value="Visited:&lt;div&gt;&lt;br&gt;&lt;/div&gt;&lt;div&gt;[1]&lt;/div&gt;&lt;div&gt;&lt;div&gt;[1, 2]&lt;/div&gt;&lt;/div&gt;&lt;div&gt;[1, 2, 3]&lt;/div&gt;&lt;div&gt;[1, 2]&lt;/div&gt;&lt;div&gt;[1]&lt;/div&gt;&lt;div&gt;[]&lt;/div&gt;" style="text;html=1;align=left;verticalAlign=top;whiteSpace=wrap;rounded=0;labelBorderColor=none;labelBackgroundColor=none;textShadow=0;" vertex="1" parent="1">
          <mxGeometry x="545" y="480" width="59" height="161" as="geometry" />
        </mxCell>
        <mxCell id="ojNsEPtxt1X2KsDSGKr0-20" value="Level:&lt;div&gt;&lt;br&gt;&lt;/div&gt;&lt;div&gt;1&lt;/div&gt;&lt;div&gt;2&lt;/div&gt;&lt;div&gt;3&lt;/div&gt;&lt;div&gt;2&lt;/div&gt;&lt;div&gt;1&lt;/div&gt;&lt;div&gt;0&lt;/div&gt;" style="text;html=1;align=left;verticalAlign=top;whiteSpace=wrap;rounded=0;" vertex="1" parent="1">
          <mxGeometry x="604" y="480" width="59" height="161" as="geometry" />
        </mxCell>
      </root>
    </mxGraphModel>
  </diagram>
</mxfile>
